<?xml version="1.0" encoding="UTF-8" standalone="no"?><!DOCTYPE svg PUBLIC "-//W3C//DTD SVG 1.1//EN" "http://www.w3.org/Graphics/SVG/1.1/DTD/svg11.dtd"><svg width="100%" height="100%" viewBox="0 0 2134 2134" version="1.1" xmlns="http://www.w3.org/2000/svg" xmlns:xlink="http://www.w3.org/1999/xlink" xml:space="preserve" xmlns:serif="http://www.serif.com/" style="fill-rule:evenodd;clip-rule:evenodd;stroke-linejoin:round;stroke-miterlimit:2;"><circle cx="1066.67" cy="1066.67" r="1066.67" style="fill:#3a7dce;"/><path d="M712.634,1035.43c-8.329,-16.217 -8.329,-16.217 -8.329,-32.431c-4.165,0 -4.946,0.762 -7.355,0.124c-2.408,-0.632 -3.318,14.952 -11.129,11.91c-1.301,-1.52 5.597,-12.792 -1.887,-17.478c-2.408,-1.526 0.586,-10.773 -0.456,-14.827c0,0 -9.5,4.812 -16.659,-12.16c-3.516,-4.437 -8.331,4.052 -8.331,4.052c0,0 2.082,5.194 -1.691,6.462c-5.337,-3.802 -9.243,-1.808 -16.01,-7.032c-6.769,-5.226 1.432,-11.211 -11.454,-15.645c8.331,-20.269 8.331,-16.216 29.155,-24.323c-12.496,-8.108 -12.496,-8.108 -20.824,-20.271c-12.496,-4.054 -16.662,-8.106 -29.158,-16.214c-16.659,-20.271 -24.99,-60.808 -24.99,-89.185c10.544,-9.503 24.99,32.431 45.817,44.591l29.155,12.163c16.66,8.108 20.825,16.214 33.321,24.323l37.486,12.162c16.659,12.16 24.99,28.377 37.486,32.431c13.536,0 16.143,-7.588 20.483,-8.06c24.487,-1.222 36.983,-4.292 41.863,-11.451c4.944,-5.7 16.789,3.295 50.11,-8.866l-4.164,-16.216c0,0 8.851,-7.095 20.825,-4.055c-0.325,-7.41 -1.108,-27.173 10.688,-36.089c-7.164,-7.314 -2.357,-12.556 -2.357,-12.556c0,0 6.639,-6.209 7.418,-9.503c-3.512,-17.862 3.048,-18.138 4.519,-23.395c1.469,-5.254 -5.666,-3.454 -3.654,-10.698c2.008,-7.246 14.074,-8.966 15.69,-14.935c1.621,-5.968 -3.44,-8.962 -3.149,-10.386c2.604,-5.7 0.393,-19.13 0,-24.324c22.389,-5.827 29.678,-23.563 37.486,-16.215c4.166,-24.324 8.331,-32.432 33.321,-32.432c3.516,-7.474 -9.114,-13.809 -4.165,-16.215c8.33,-1.014 14.707,-0.507 24.474,11.782c3.082,3.894 3.641,-5.701 6.765,-6.715c3.123,-1.013 10.599,-1.029 11.711,-5.827c1.175,-4.941 2.866,-11.402 7.032,-19.51c3.514,-6.587 6.247,2.534 9.37,15.456c17.574,0.633 57.271,4.434 73.93,8.868c12.496,3.167 20.827,-3.168 32.801,-4.435c8.851,8.615 17.181,2.154 21.867,20.523c6.614,9.912 17.44,0.887 19.784,3.801c13.929,37.372 61.827,12.161 65.47,12.795c6.116,0 13.588,16.71 18.402,16.295c7.825,-1.283 5.61,-6.477 12.445,-4.386c-1.825,14.061 13.408,30.277 13.408,40.791c0,0 3.707,1.774 7.143,-1.346c3.432,-3.118 6.588,-11.131 9.646,-10.942c7.289,1.014 10.242,1.925 18.642,3.354c22.584,7.51 34.087,9.204 42.86,13.052c4.081,7.268 8.035,10.991 16.306,9.633c6.834,4.468 1.849,10.32 5.885,10.7c8.331,-4.054 11.064,-8.488 19.392,-4.434c8.331,4.054 16.662,12.162 20.827,20.271c0,4.052 -4.165,20.268 0,44.591c2.082,8.109 3.091,14.537 12.04,28.441c-2.378,14.285 11.259,38.322 11.259,44.404c0,8.106 -6.64,12.288 -10.805,20.395c16.661,12.162 0,32.431 -8.329,44.593c62.476,12.163 33.321,36.486 83.301,24.323c-12.496,28.377 -8.072,26.099 4.424,54.476c-24.992,16.217 -0.518,21.155 -17.177,41.424c-1.042,1.268 9.888,17.61 25.249,17.61c-4.165,32.432 -16.661,20.269 -12.496,68.917c-32.801,-0.632 -19.526,36.359 -41.651,32.431c1.301,23.183 12.625,25.211 8.33,48.646c-16.659,4.054 -16.659,4.054 -24.99,16.217l-12.496,-4.055c-4.165,20.269 -12.494,24.323 0,44.594c0,0 -16.139,0.506 -20.824,0c-0.393,6.968 7.159,8.868 8.33,16.215c-0.651,2.914 -23.691,15.708 -41.651,16.216c-4.685,10.009 12.494,20.651 11.454,25.717c-19.526,3.672 -28.115,26.983 -28.115,26.983c0,0 10.022,3.928 8.33,8.109c-5.334,-3.803 -8.33,-4.055 -16.659,-4.055c-4.165,1.014 -14.316,-0.248 -24.051,15.741c-10.683,3.43 -15.726,2.19 -23.831,12.62c-3.588,-9.936 -8.748,0.094 -15.058,3.949c-6.305,3.86 -14.798,13.454 -15.938,13.046c0.261,-2.79 3.906,-12.924 3.906,-12.924l-20.826,4.054c0,0 -0.929,0.088 -2.565,0.25c-1.638,0.158 -1.2,-11.833 -5.148,-11.399c-3.945,0.438 -15.237,15.081 -19.086,15.539c-3.843,0.458 -5.059,-4.658 -8.372,-4.212c-3.31,0.446 -9.767,15.444 -12.111,15.842c-2.345,0.398 -11.646,-9.116 -19.617,-7.788c-41.002,14.065 -47.512,-27.741 -53.888,-4.178c-8.59,-4.436 -7.102,-1.862 -15.831,0.364c-5.569,1.398 -6.077,-7.166 -11.029,-7.034c-9.909,0.272 -9.389,9.394 -14.791,6.67c-4.423,-19.005 -31.11,-15.585 -33.711,-23.691c-2.117,-8.456 11.561,-8.416 15.985,-14.145c3.382,-8.266 -3.533,-11.404 10.192,-19.378c17.888,-11.777 7.606,-16.219 10.741,-25.069c5.61,-12.779 5.643,-15.899 0.958,-27.173c0,0 -13.928,-36.486 -16.661,-36.486c-8.329,-2.278 -8.329,13.427 -20.566,17.737c-24.99,8.106 -69.111,-20.525 -76.793,-20.525c-7.026,0.128 -39.576,7.503 -38.347,-8.294c-4.866,15.359 -22.762,3.608 -23.866,3.608c-16.661,0 -10.285,12.543 -21.48,12.035c-5.078,-1.646 -56.358,-4.561 -56.358,-4.561l0,8.109l-33.321,-16.217l-29.155,-8.106c-24.99,-8.108 -12.494,-28.379 -54.145,-16.217l0,-24.323l-20.825,0c8.328,-48.647 0,-24.323 -4.165,-68.916l-16.662,4.054c-16.659,-21.917 23.167,-17.737 -12.494,-32.431c0,0 0.65,-24.199 -8.33,-16.217c-1.823,1.014 4.165,12.163 4.165,12.163c-33.321,-4.055 -41.651,-12.163 -41.651,-44.594c0,0 27.464,3.802 24.99,0c-3.905,-6.08 -8.98,-45.606 -8.07,-48.266c-0.391,-5.322 25.512,-18.749 20.5,-31.547c3.189,-1.14 12.56,-1.264 12.56,-1.264" style="fill:#fff;fill-rule:nonzero;"/></svg>