<?xml version="1.0" encoding="UTF-8" standalone="no"?><!DOCTYPE svg PUBLIC "-//W3C//DTD SVG 1.1//EN" "http://www.w3.org/Graphics/SVG/1.1/DTD/svg11.dtd"><svg width="100%" height="100%" viewBox="0 0 2134 2134" version="1.1" xmlns="http://www.w3.org/2000/svg" xmlns:xlink="http://www.w3.org/1999/xlink" xml:space="preserve" xmlns:serif="http://www.serif.com/" style="fill-rule:evenodd;clip-rule:evenodd;stroke-linejoin:round;stroke-miterlimit:2;"><path d="M1820.92,1820.92c-416.559,416.558 -1091.94,416.558 -1508.5,0c-416.563,-416.559 -416.559,-1091.94 0,-1508.5c32.791,32.787 852.629,655.866 852.629,655.866l655.871,852.634Z" style="fill:#fcdd09;fill-rule:nonzero;"/><path d="M312.421,312.421c416.558,-416.559 1091.94,-416.559 1508.5,0c416.562,416.558 416.558,1091.94 0,1508.5" style="fill:#078930;fill-rule:nonzero;"/><g><path d="M1066.67,782.405l70.566,217.164l228.326,0l-184.729,134.212l70.566,217.152l-184.729,-134.199l-184.729,134.199l70.566,-217.152l-184.729,-134.212l228.325,0l70.567,-217.164Z" style="fill:#da121a;fill-rule:nonzero;"/></g></svg>