<?xml version="1.0" encoding="UTF-8" standalone="no"?><!DOCTYPE svg PUBLIC "-//W3C//DTD SVG 1.1//EN" "http://www.w3.org/Graphics/SVG/1.1/DTD/svg11.dtd"><svg width="100%" height="100%" viewBox="0 0 2134 2134" version="1.1" xmlns="http://www.w3.org/2000/svg" xmlns:xlink="http://www.w3.org/1999/xlink" xml:space="preserve" xmlns:serif="http://www.serif.com/" style="fill-rule:evenodd;clip-rule:evenodd;stroke-linejoin:round;stroke-miterlimit:2;"><circle cx="1066.67" cy="1066.67" r="1066.67" style="fill:#f0f0f0;"/><g><path d="M1066.67,0c-323.296,0 -612.975,143.85 -808.588,371.013l1617.17,0c-195.608,-227.163 -485.288,-371.013 -808.583,-371.013Z" style="fill:#078930;fill-rule:nonzero;"/><path d="M1875.25,1762.32l-1617.17,0c195.613,227.162 485.292,371.012 808.588,371.012c323.295,0 612.975,-143.85 808.587,-371.012Z" style="fill:#078930;fill-rule:nonzero;"/></g><path d="M1976.78,510.146l-1820.22,0c-99.287,162.021 -156.558,352.575 -156.558,556.521c0,203.946 57.271,394.504 156.558,556.521l1820.22,0c99.287,-162.017 156.558,-352.575 156.558,-556.521c0,-203.946 -57.271,-394.5 -156.558,-556.521Z" style="fill:#da121a;fill-rule:nonzero;"/><path d="M451.622,842.965l57.564,170.696l186.59,0l-151.008,105.502l58.015,171.205l-151.161,-106.004l-150.933,105.806l57.786,-171.007l-150.872,-105.502l186.451,0l57.568,-170.696Z" style="fill:#fcdd09;fill-rule:nonzero;"/></svg>