<?xml version="1.0" encoding="UTF-8" standalone="no"?><!DOCTYPE svg PUBLIC "-//W3C//DTD SVG 1.1//EN" "http://www.w3.org/Graphics/SVG/1.1/DTD/svg11.dtd"><svg width="100%" height="100%" viewBox="0 0 2134 2134" version="1.1" xmlns="http://www.w3.org/2000/svg" xmlns:xlink="http://www.w3.org/1999/xlink" xml:space="preserve" xmlns:serif="http://www.serif.com/" style="fill-rule:evenodd;clip-rule:evenodd;stroke-linejoin:round;stroke-miterlimit:2;"><path d="M2133.33,1066.67c0,589.1 -477.566,1066.67 -1066.67,1066.67c-589.1,0 -1066.67,-477.566 -1066.67,-1066.67c0,0.254 1066.67,-1066.55 1066.67,-1066.67c589.1,0 1066.67,477.567 1066.67,1066.67Z" style="fill:#0052b4;fill-rule:nonzero;"/><g><path d="M1066.67,0l-0.179,0l0.179,0Z" style="fill:#f0f0f0;fill-rule:nonzero;"/><path d="M1063.81,1066.67l2.854,0l0,-2.854c-0.95,0.954 -1.9,1.904 -2.855,2.854Z" style="fill:#f0f0f0;fill-rule:nonzero;"/><path d="M1066.67,556.521l0,-556.521l-0.179,0c-589.021,0.1 -1066.49,477.621 -1066.49,1066.67l556.521,0l0,-313.379l313.383,313.379l193.913,0c0.95,-0.95 1.904,-1.9 2.854,-2.854l0,-193.905l-313.388,-313.387l313.384,0Z" style="fill:#f0f0f0;fill-rule:nonzero;"/></g><g><path d="M539.646,139.129c-166.829,94.996 -305.521,233.688 -400.517,400.517l0,527.021l278.263,0l0,-649.275l649.275,0l0,-278.263l-527.021,0Z" style="fill:#d80027;fill-rule:nonzero;"/><path d="M1066.67,935.496l-378.971,-378.971c0,0 -131.171,0.008 -131.171,0l0,0.008l510.138,510.134l0.004,0l0,-131.171Z" style="fill:#d80027;fill-rule:nonzero;"/></g></svg>